<svg width="32" height="32" viewBox="0 0 32 32" fill="none" xmlns="http://www.w3.org/2000/svg">
<g id="icon_&#236;&#152;&#183;">
<path id="Vector" d="M29.8473 16.2698C29.4353 14.6712 29.0326 13.0827 28.6206 11.4841C28.2554 10.0754 27.9276 8.65668 27.244 7.36785C27.1223 7.12807 26.935 6.83833 26.7196 6.7584C25.0902 6.14896 23.442 5.58946 21.7564 5C21.7564 5.22979 21.7845 5.40963 21.7564 5.57947C21.4942 6.92825 20.8949 8.0772 19.8367 8.89646C18.6193 9.82561 17.2709 10.2652 15.7538 10.0354C14.2742 9.81562 13.0849 9.08629 12.1766 7.82743C11.6709 7.12807 11.3619 6.34877 11.2401 5.47956C11.184 5.07993 11.1465 5.02997 10.7626 5.15985C9.35788 5.64941 7.95321 6.15895 6.54854 6.62852C6.14587 6.7584 5.88366 6.98819 5.73383 7.37784C5.34989 8.41689 4.90976 9.43597 4.6101 10.495C4.04823 12.5332 3.56128 14.5913 3.04623 16.6494C2.91513 17.1589 3.04623 17.7484 3.65492 17.8183C3.72984 17.8383 3.81412 17.8783 3.88903 17.8783C5.3218 17.8783 6.76392 17.8783 8.19669 17.8783C8.2716 17.8783 8.34652 17.8283 8.42143 17.8084C8.42143 15.97 8.46826 14.1317 8.13114 12.3134C8.01876 11.7339 7.91575 11.1444 7.44753 10.7148C7.15723 10.445 7.19469 9.93551 7.44753 9.64578C7.69101 9.37602 8.09368 9.29609 8.34652 9.54587C8.58999 9.77566 8.81474 10.0554 8.99267 10.3551C9.42343 11.0945 9.55453 11.9437 9.64818 12.7829C9.76992 13.8819 9.79801 15.0009 9.87293 16.1099C9.87293 16.8292 9.87293 17.5586 9.87293 18.2779C9.84483 18.8874 9.81674 19.4968 9.79801 20.1063C9.76992 20.8955 9.75119 21.6848 9.72309 22.4741C9.70437 22.9037 9.68564 23.3333 9.64818 23.7629C9.58263 24.5023 9.50771 25.2416 9.44216 25.9809C9.44216 26.5404 12.598 27 16.4842 27C20.3705 27 23.5263 26.5404 23.5263 25.9809C23.517 25.8411 23.5076 25.7012 23.4982 25.5613C23.4327 24.6521 23.3578 23.743 23.2922 22.8438C23.2547 22.3242 23.236 21.8047 23.2173 21.2852C23.1705 20.2361 23.133 19.1771 23.0862 18.1281C23.0675 17.9149 23.0581 17.785 23.0581 17.7384C23.0581 17.139 23.0487 17.069 23.0394 16.4696C23.0206 16.3397 23.0675 15.8501 23.0675 15.7203C23.1049 15.0908 23.1798 14.4614 23.2079 13.832C23.2547 12.8529 23.4046 11.8837 23.7323 10.9646C23.8915 10.505 24.1631 10.0754 24.4534 9.69573C24.7624 9.29609 25.2681 9.33606 25.5771 9.67575C25.8393 9.98547 25.7832 10.4051 25.4554 10.7947C25.3056 10.9646 25.1838 11.1744 25.0995 11.3842C24.6407 12.6331 24.6126 13.9619 24.519 15.2707C24.4628 16.1099 24.519 16.9591 24.519 17.8084C24.6126 17.8383 24.7156 17.8883 24.8092 17.8883C26.2326 17.8883 27.656 17.8883 29.0794 17.8883C29.1731 17.8883 29.2574 17.8483 29.351 17.8283C29.8567 17.7784 30.0534 17.2489 29.9878 16.8292C29.9597 16.6494 29.8942 16.4696 29.8473 16.2897V16.2698Z" fill="#8B8B92"/>
</g>
</svg>
