<svg width="32" height="32" viewBox="0 0 32 32" fill="none" xmlns="http://www.w3.org/2000/svg">
<path d="M24.1458 7.72387C22.9801 6.597 21.4226 5.98149 19.7886 6.00042C18.1547 6.01936 16.6163 6.67276 15.4792 7.83751L7.73948 15.6877C6.60241 16.8525 5.98132 18.3865 6.00043 20.0058C6.01954 21.6251 6.67885 23.1497 7.85414 24.2766C9.01033 25.3939 10.5201 26 12.1349 26C12.1636 26 12.1827 26 12.2113 26C13.8453 25.9811 15.3837 25.3277 16.5207 24.1629L24.2605 16.3032C26.6206 13.9075 26.5729 10.0534 24.1554 7.7144L24.1458 7.72387ZM15.785 21.2463C14.8104 22.4489 13.6924 23.1118 12.4693 23.216C12.3547 23.2254 12.24 23.2349 12.1253 23.2349C10.6252 23.2349 9.58364 22.3732 9.45942 22.269C9.0581 21.9281 9.01988 21.3221 9.36387 20.9338C9.70786 20.5456 10.3098 20.4982 10.7016 20.8391C10.7303 20.8581 11.4278 21.4168 12.3069 21.3315C12.9853 21.2653 13.6446 20.8391 14.2753 20.0626C14.6097 19.6554 15.2117 19.5892 15.6226 19.9206C16.0334 20.252 16.1003 20.8486 15.7659 21.2558L15.785 21.2463ZM22.8845 14.987L19.6835 18.235L13.6446 12.3923L16.8456 9.1443C17.6292 8.34886 18.6898 7.89432 19.8173 7.88485H19.8746C20.983 7.88485 22.0246 8.30151 22.8176 9.07801C24.4803 10.6878 24.5185 13.3393 22.8941 14.9964L22.8845 14.987Z" fill="#8B8B92"/>
</svg>
