<svg width="17" height="16" viewBox="0 0 17 16" fill="none" xmlns="http://www.w3.org/2000/svg">
<g id="icon_Reset">
<path id="Vector" d="M11.708 5.77688L11.708 5.77698C11.6763 5.96294 11.7974 6.13447 11.9698 6.17127C11.977 6.17237 11.9845 6.17367 11.9924 6.17523C12.1671 6.19984 12.3372 6.08084 12.3693 5.89432C12.3693 5.89423 12.3693 5.89415 12.3693 5.89406L12.6345 4.33863L12.8443 3.10804L13.542 4.1432C14.5248 5.60134 14.901 7.23188 14.6525 8.97456L14.6525 8.97457C14.3909 10.8083 13.4365 12.4222 11.9635 13.5127L11.9635 13.5127C10.4777 14.6124 8.64244 15.0506 6.80284 14.7476L6.80282 14.7476C4.9372 14.4402 3.27534 13.3364 2.23715 11.7248L2.23709 11.7247C1.19532 10.1067 0.873467 8.12061 1.35569 6.27188L11.708 5.77688ZM11.708 5.77688L12.3128 2.22638C12.3128 2.22624 12.3129 2.22611 12.3129 2.22598M11.708 5.77688L12.3129 2.22598M7.70736 0.509265L7.70632 0.509335L7.69867 0.509832C7.31158 0.535047 6.94621 0.558846 6.58985 0.624624C4.64957 0.982861 2.96361 2.07406 1.83913 3.69842L7.70736 0.509265ZM7.70736 0.509265L7.82106 0.501616C7.82133 0.501599 7.8216 0.501583 7.82186 0.501566C7.99816 0.490516 8.09941 0.538275 8.1568 0.590849C8.20658 0.637175 8.24539 0.711453 8.24771 0.815485C8.2502 0.926569 8.2168 0.995425 8.17301 1.04137C8.15477 1.06023 8.12468 1.08541 8.07698 1.10687C8.02958 1.1282 7.95308 1.15119 7.8351 1.15262M7.70736 0.509265L7.8351 1.15262M13.3673 2.75701L14.5322 2.9592L16.1079 3.2327C16.286 3.2635 16.4621 3.14361 16.4949 2.95356C16.5266 2.76792 16.4059 2.59666 16.2341 2.55945C16.2263 2.55828 16.217 2.55666 16.2064 2.55443L12.7 1.9468L13.3673 2.75701ZM13.3673 2.75701L14.0337 3.73365M13.3673 2.75701L14.0337 3.73365M14.0337 3.73365C15.4544 5.81591 15.7473 8.44036 14.8112 10.7918M14.0337 3.73365L0.606957 9.27109C0.938218 11.2506 2.02517 12.9783 3.67128 14.14C4.94098 15.0358 6.40802 15.5 7.90739 15.5C8.35401 15.5 8.80508 15.4588 9.25414 15.3755C11.7776 14.9058 13.8544 13.1947 14.8112 10.7918M12.3129 2.22598C12.3457 2.03598 12.5216 1.91609 12.6998 1.94677L12.3129 2.22598ZM7.8351 1.15262C4.79243 1.18451 2.1318 3.29344 1.35572 6.27174L7.8351 1.15262ZM14.8112 10.7918L15.2758 10.9768M14.8112 10.7918L15.2758 10.9768M15.2758 10.9768C14.2559 13.538 12.0391 15.3657 9.34565 15.8671C8.86651 15.956 8.38482 16 7.90739 16C6.30316 16 4.73571 15.5029 3.38302 14.5485M15.2758 10.9768L3.38302 14.5485M3.38302 14.5485C1.6282 13.3102 0.467163 11.4652 0.113804 9.35356L3.38302 14.5485ZM0.606947 9.27103C0.277378 7.30004 0.715394 5.32209 1.8391 3.69846L0.606947 9.27103Z" fill="black" stroke="black"/>
</g>
</svg>
