<svg width="32" height="32" viewBox="0 0 32 32" fill="none" xmlns="http://www.w3.org/2000/svg">
<g id="icon_&#237;&#153;&#149;&#236;&#132;&#177;&#234;&#184;&#176;">
<path id="Vector" d="M21.83 16.27C21.83 19.57 21.83 22.87 21.83 26.18C21.83 26.48 21.81 26.78 21.67 27.06C21.48 27.42 21.19 27.6 20.78 27.59C20.57 27.59 20.37 27.52 20.19 27.42C19.55 27.08 18.92 26.73 18.28 26.38C16.13 25.21 13.98 24.03 11.83 22.87C11.32 22.59 10.99 22.19 10.82 21.65C10.78 21.54 10.77 21.41 10.77 21.29C10.77 18.32 10.77 15.34 10.77 12.37C10.77 11.63 11.1 11.05 11.72 10.65C13.78 9.33 15.85 8.03 17.91 6.71C18.7 6.21 19.49 5.71 20.28 5.2C20.47 5.08 20.67 5 20.89 5C21.23 5 21.49 5.14 21.66 5.43C21.77 5.62 21.82 5.83 21.82 6.04C21.83 6.35 21.82 6.66 21.82 6.96C21.82 10.06 21.82 13.16 21.82 16.26L21.83 16.27Z" fill="#8B8B92"/>
<path id="Vector_2" d="M9.03 16.2602C9.03 17.4502 9.03 18.6402 9.03 19.8302C9.03 20.0702 9.02 20.3102 8.98 20.5502C8.92 20.9002 8.68 21.1102 8.36 21.2302C8.25 21.2702 8.12 21.2902 8 21.2902C7.33 21.2902 6.66 21.2902 5.99 21.2902C5.57 21.2902 5.18 20.9902 5.07 20.5902C5.03 20.4402 5.02 20.2802 5.02 20.1202C5.02 17.7102 5.02 15.3102 5.02 12.9002C5.02 12.6802 5 12.4502 5.02 12.2302C5.06 11.8302 5.24 11.4802 5.69 11.3202C5.86 11.2602 6.05 11.2502 6.23 11.2402C6.83 11.2402 7.43 11.2402 8.02 11.2402C8.45 11.2502 8.78 11.4502 8.95 11.8502C9 11.9602 9.03 12.0802 9.03 12.1902C9.03 12.9902 9.03 13.8002 9.04 14.6002C9.04 15.1502 9.04 15.7002 9.04 16.2502L9.03 16.2602Z" fill="#8B8B92"/>
<path id="Vector_3" d="M24.9422 11.978L24.9422 11.978L24.9408 11.9771C24.813 11.9026 24.627 11.8149 24.4031 11.8499H24.4C24.389 11.8499 24.3829 11.8492 24.3719 11.8479C24.3616 11.8467 24.3471 11.8451 24.3204 11.843C24.2821 11.84 24.2186 11.8372 24.151 11.8588C23.8547 11.9461 23.6355 12.1391 23.5228 12.4397L23.5224 12.4396L23.5189 12.4511C23.4777 12.585 23.4329 12.7479 23.4745 12.9418L23.4745 12.9418L23.4748 12.9433C23.5514 13.2883 23.783 13.496 24.0216 13.648C24.7062 14.0951 25.1801 14.6854 25.3759 15.4779L25.3759 15.4779L25.3763 15.4797C25.4607 15.8078 25.4888 16.1349 25.4608 16.472C25.4315 16.7745 25.3837 17.0637 25.283 17.329L25.283 17.329L25.2819 17.3321C25.0765 17.9014 24.7221 18.3512 24.2385 18.721L24.2385 18.7209L24.2334 18.7251C24.1872 18.7629 24.1355 18.7975 24.0741 18.8385L24.0707 18.8408C24.0129 18.8793 23.946 18.9239 23.8834 18.9751L23.8833 18.9751L23.8799 18.9781C23.6381 19.1853 23.4568 19.4703 23.5229 19.8539L23.5231 19.8547C23.6346 20.4868 24.3282 20.8907 24.9514 20.5223C25.4806 20.211 25.9508 19.8148 26.3282 19.3223C26.9638 18.5093 27.2966 17.5814 27.3694 16.5656C27.3806 16.4352 27.3747 16.3055 27.3671 16.1872C27.3655 16.1612 27.3637 16.136 27.3621 16.1114C27.3558 16.0187 27.35 15.9341 27.35 15.8499C27.35 15.4797 27.263 15.1269 27.1609 14.8002L27.1607 14.7996C26.7765 13.5847 26.0461 12.6341 24.9422 11.978Z" fill="#8B8B92" stroke="#8B8B92" stroke-width="0.4"/>
</g>
</svg>
