<svg width="32" height="32" viewBox="0 0 32 32" fill="none" xmlns="http://www.w3.org/2000/svg">
<g id="icon_&#235;&#185;&#132;&#236;&#131;&#129;&#236;&#139;&#157;&#235;&#159;&#137;">
<path id="Vector" d="M9.11594 15.4524C9.28019 15.8041 9.66667 16.0302 10.0338 15.9967C10.4783 15.9549 10.8357 15.6534 10.942 15.218C10.9614 15.1342 11 15.0421 11 14.9584C11 13.0826 11 7.86569 11 5.98994C11 5.9062 10.9614 5.81409 10.942 5.73035C10.8357 5.21117 10.4783 4.9767 9.82126 5.00182C9.38647 5.01857 9.08696 5.32003 9.04831 5.78059C9.02899 5.8727 9 5.95644 9 6.04856C9 7.88243 9 13.0575 9 14.8914C9 14.9835 9.02899 15.0672 9.04831 15.1593C9.06763 15.2598 9.06763 15.3603 9.11594 15.4524Z" fill="#8B8B92"/>
<path id="Vector_2" d="M14.45 5.11977C13.78 4.75977 12.94 5.05977 12.93 5.97977C12.92 8.38977 12.9 8.78977 12.86 11.1998C12.85 12.0698 12.38 12.7298 11.72 13.2098C10.4 14.1698 8.66 13.9998 7.61 12.6398C7.24 12.1598 7.02 11.6098 7 10.9998C7.02 10.8898 7.06 8.39977 7.05 6.24977C7.05 6.13977 7.02 6.03977 7 5.92977C6.84 5.19977 6.54 4.96977 5.8 4.99977C5.41 4.99977 5.04 5.42977 5.06 5.84977C5.04 5.94977 5.01 6.05977 5 6.15977C5 8.32977 5 8.49977 5 10.6698C5 10.7798 5.04 11.3298 5.05 11.3798C5.09 11.7898 5.15 11.9698 5.28 12.3498C5.9 14.1098 7.11 15.2198 8.93 15.6498C8.93 18.8498 8.93 23.0498 8.93 26.2498C8.93 26.3798 8.96 26.5098 8.98 26.6398C9 26.7598 9 26.8798 9.04 26.9898C9.2 27.3998 9.6 27.6798 9.98 27.6398C10.34 27.5998 10.86 27.3398 10.93 26.7098C10.95 26.5798 10.99 26.4598 10.99 26.3298C10.99 23.1098 10.99 18.8798 11 15.6598C11.06 15.6298 11.12 15.5998 11.18 15.5898C13.26 15.1198 14.92 13.2555 14.92 11.1998C14.94 11.1098 14.92 10.8098 14.92 10.7098C14.92 8.50977 14.92 8.31977 14.92 6.11977C14.92 6.02977 14.88 5.93977 14.86 5.83977C14.84 5.51977 14.72 5.26977 14.43 5.10977L14.45 5.11977Z" fill="#8B8B92"/>
<path id="Vector_3" d="M26.67 9.21015C26.41 7.95015 26.02 6.76015 25.22 5.72015C24.21 4.38015 22.71 4.00015 21.18 4.41015C20.04 4.72015 19.32 5.56015 18.82 6.56015C17.95 8.31015 17.59 10.1802 17.72 12.1402C17.78 13.0802 18.01 13.9702 18.45 14.8002C19.06 15.9602 20.01 16.6902 21.32 16.9702V18.4202C21.32 21.2502 21.32 24.0802 21.32 26.9102C21.32 27.4502 21.66 27.8402 22.11 27.8702C22.82 27.9202 23.18 27.6002 23.26 27.0002C23.28 26.8702 23.32 26.7502 23.32 26.6202C23.32 23.7802 23.32 20.9502 23.32 18.1102C23.32 17.7302 23.32 17.3602 23.3 16.9802C23.34 16.9602 23.37 16.9302 23.41 16.9202C24.1 16.7302 24.74 16.4502 25.26 15.9502C26.28 14.9702 26.74 13.7102 26.84 12.3402C26.92 11.2902 26.88 10.2402 26.66 9.19015L26.67 9.21015Z" fill="#8B8B92"/>
</g>
</svg>
