<svg width="32" height="32" viewBox="0 0 32 32" fill="none" xmlns="http://www.w3.org/2000/svg">
<g id="icon_&#235;&#157;&#188;&#235;&#148;&#148;&#236;&#152;&#164;">
<path id="Union" fill-rule="evenodd" clip-rule="evenodd" d="M24.198 10.5848H24.9777V10.5929C26.0985 10.5929 27 11.4944 27 12.6153V23.9777C27 25.0985 26.0985 26 24.9777 26H7.97875C6.85794 26 5.95642 25.0985 5.95642 23.9777V12.6153C5.95642 11.4944 6.85794 10.5929 7.97875 10.5929H20.7462L10.2772 5.45182C9.8955 5.26502 9.74118 4.8102 9.92799 4.42847C10.1148 4.04675 10.5696 3.89243 10.9513 4.07923L24.1655 10.5604C24.1818 10.5686 24.198 10.5848 24.198 10.5848ZM8.59601 18.1137C8.59601 20.3553 10.4153 22.1746 12.6569 22.1746C14.8985 22.1746 16.7178 20.3553 16.7178 18.1137C16.7178 15.8721 14.8985 14.0528 12.6569 14.0528C10.4153 14.0528 8.59601 15.8721 8.59601 18.1137ZM19.2681 20.2416H21.9889C22.4112 20.2416 22.7523 19.9005 22.7523 19.4782C22.7523 19.0559 22.4112 18.7147 21.9889 18.7147H19.2681C18.8457 18.7147 18.5046 19.0559 18.5046 19.4782C18.5046 19.9005 18.8457 20.2416 19.2681 20.2416ZM19.2681 16.798H23.8244C24.2467 16.798 24.5879 16.4569 24.5879 16.0345C24.5879 15.6122 24.2467 15.2711 23.8244 15.2711H19.2681C18.8457 15.2711 18.5046 15.6122 18.5046 16.0345C18.5046 16.4569 18.8457 16.798 19.2681 16.798ZM14.2814 18.1221C14.2814 19.0192 13.5541 19.7465 12.657 19.7465C11.7599 19.7465 11.0326 19.0192 11.0326 18.1221C11.0326 17.225 11.7599 16.4977 12.657 16.4977C13.5541 16.4977 14.2814 17.225 14.2814 18.1221Z" fill="#8B8B92"/>
<path id="Line 1" d="M9.53666 2.92669C8.94388 2.6303 8.22307 2.87057 7.92669 3.46334C7.6303 4.05612 7.87057 4.77693 8.46334 5.07331L9.53666 2.92669ZM8.46334 5.07331L24.4633 13.0733L25.5367 10.9267L9.53666 2.92669L8.46334 5.07331Z" fill="#8B8B92"/>
</g>
</svg>
