<svg width="26" height="26" viewBox="0 0 26 26" fill="none" xmlns="http://www.w3.org/2000/svg">
<path d="M12.9961 9.29155C15.3178 9.29155 17.1998 7.45411 17.1998 5.18752C17.1998 2.92093 15.3178 1.0835 12.9961 1.0835C10.6745 1.0835 8.79248 2.92093 8.79248 5.18752C8.79248 7.45411 10.6745 9.29155 12.9961 9.29155Z" fill="#040000"/>
<path d="M23.2875 7.31932C23.8317 6.31656 24.2874 5.28059 23.0087 4.51689C21.7435 3.75984 21.1245 4.73604 20.5191 5.59271C20.1314 6.13725 19.7369 6.67516 19.3424 7.21971C17.533 9.7233 15.5536 10.9186 13.0029 10.9585C10.4453 10.9186 8.47272 9.7233 6.66338 7.21971C6.26886 6.67516 5.87434 6.13725 5.48663 5.59271C4.87445 4.73604 4.26226 3.76648 2.99709 4.51689C1.7115 5.28059 2.16724 6.31656 2.7114 7.31932C4.17384 10.0221 5.58866 12.0874 7.10551 14.757C7.94216 16.2379 8.03059 16.404 7.67008 18.011C7.31638 19.5982 6.7178 20.4748 6.62937 22.1217C6.57495 23.1577 6.95587 23.6425 8.05099 23.6159C9.66988 23.576 11.2888 23.6093 12.9076 23.6093C12.9349 23.6093 12.9689 23.6093 12.9961 23.6093C13.0233 23.6093 13.0573 23.6093 13.0845 23.6093C14.7034 23.6093 16.3223 23.5827 17.9411 23.6159C19.0431 23.6425 19.4172 23.1577 19.3628 22.1217C19.2743 20.4681 18.6758 19.5982 18.3221 18.011C17.9616 16.404 18.05 16.2446 18.8866 14.757C20.3967 12.0808 21.8183 10.0221 23.2807 7.31932H23.2875Z" fill="#040000"/>
</svg>
