<svg width="24" height="24" viewBox="0 0 24 24" fill="none" xmlns="http://www.w3.org/2000/svg">
<g id="icon_&#236;&#156;&#132;&#236;&#185;&#152; &#236;&#158;&#172;&#236;&#132;&#164;&#236;&#160;&#149;" clip-path="url(#clip0_37_1071)">
<path id="Vector" d="M5.91488 10.937H1.08958C0.487823 10.937 0 11.4233 0 12.0231C0 12.6229 0.487823 13.1091 1.08958 13.1091H5.91488C6.51664 13.1091 7.00446 12.6229 7.00446 12.0231C7.00446 11.4233 6.51664 10.937 5.91488 10.937Z" fill="black"/>
<path id="Vector_2" d="M22.9104 10.937H18.0851C17.4833 10.937 16.9955 11.4233 16.9955 12.0231C16.9955 12.6229 17.4833 13.1091 18.0851 13.1091H22.9104C23.5121 13.1091 23.9999 12.6229 23.9999 12.0231C23.9999 11.4233 23.5121 10.937 22.9104 10.937Z" fill="black"/>
<path id="Vector_3" d="M13.0504 5.89576V1.08606C13.0504 0.486246 12.5626 0 11.9608 0C11.3591 0 10.8713 0.486246 10.8713 1.08606V5.89576C10.8713 6.49557 11.3591 6.98182 11.9608 6.98182C12.5626 6.98182 13.0504 6.49557 13.0504 5.89576Z" fill="black"/>
<path id="Vector_4" d="M13.0504 22.9133V18.1036C13.0504 17.5038 12.5626 17.0176 11.9608 17.0176C11.3591 17.0176 10.8713 17.5038 10.8713 18.1036V22.9133C10.8713 23.5132 11.3591 23.9994 11.9608 23.9994C12.5626 23.9994 13.0504 23.5132 13.0504 22.9133Z" fill="black"/>
<path id="Vector_5" d="M11.971 19.594C7.73991 19.594 4.29761 16.1629 4.29761 11.9455C4.29761 7.72805 7.73991 4.29688 11.971 4.29688C16.2021 4.29688 19.6444 7.72805 19.6444 11.9455C19.6444 16.1629 16.2021 19.594 11.971 19.594ZM11.971 6.23627C8.81276 6.23627 6.24329 8.79743 6.24329 11.9455C6.24329 15.0935 8.81276 17.6546 11.971 17.6546C15.1292 17.6546 17.6987 15.0935 17.6987 11.9455C17.6987 8.79743 15.1292 6.23627 11.971 6.23627Z" fill="black"/>
<path id="Vector_6" d="M11.971 14.5591C13.4191 14.5591 14.593 13.389 14.593 11.9456C14.593 10.5021 13.4191 9.33203 11.971 9.33203C10.5229 9.33203 9.349 10.5021 9.349 11.9456C9.349 13.389 10.5229 14.5591 11.971 14.5591Z" fill="black"/>
</g>
<defs>
<clipPath id="clip0_37_1071">
<rect width="24" height="24" fill="white"/>
</clipPath>
</defs>
</svg>
